PathFileType	4	(X/Y/Z)	..\data\2014025\dynamic\2014025_C4_04.trc
DataRate	CameraRate	NumFrames	NumMarkers	Units	OrigDataRate	OrigDataStartFrame	OrigNumFrames
100.000000	100.000000	4	52	mm	100.000000	114	152
Frame#	Time	L_IAS			L_IPS			R_IPS			R_IAS			L_FTC			L_FLE			L_FME			L_FAX			L_TTC			L_FAL			L_TAM			L_FCC			L_FM1			L_FM2			L_FM5			R_FTC			R_FLE			R_FME			R_FAX			R_TTC			R_FAL			R_TAM			R_FCC			R_FM1			R_FM2			R_FM5			CV7			TV10			SXS			SJN			L_SIA			L_SRS			L_SAA			L_SAE			L_HLE			L_HME			L_UOA			L_RSP			L_UHE			L_HM2			L_HM5			R_SIA			R_SRS			R_SAA			R_SAE			R_HLE			R_HME			R_UOA			R_RSP			R_UHE			R_HM2			R_HM5			
		X1	Y1	Z1	X2	Y2	Z2	X3	Y3	Z3	X4	Y4	Z4	X5	Y5	Z5	X6	Y6	Z6	X7	Y7	Z7	X8	Y8	Z8	X9	Y9	Z9	X10	Y10	Z10	X11	Y11	Z11	X12	Y12	Z12	X13	Y13	Z13	X14	Y14	Z14	X15	Y15	Z15	X16	Y16	Z16	X17	Y17	Z17	X18	Y18	Z18	X19	Y19	Z19	X20	Y20	Z20	X21	Y21	Z21	X22	Y22	Z22	X23	Y23	Z23	X24	Y24	Z24	X25	Y25	Z25	X26	Y26	Z26	X27	Y27	Z27	X28	Y28	Z28	X29	Y29	Z29	X30	Y30	Z30	X31	Y31	Z31	X32	Y32	Z32	X33	Y33	Z33	X34	Y34	Z34	X35	Y35	Z35	X36	Y36	Z36	X37	Y37	Z37	X38	Y38	Z38	X39	Y39	Z39	X40	Y40	Z40	X41	Y41	Z41	X42	Y42	Z42	X43	Y43	Z43	X44	Y44	Z44	X45	Y45	Z45	X46	Y46	Z46	X47	Y47	Z47	X48	Y48	Z48	X49	Y49	Z49	X50	Y50	Z50	X51	Y51	Z51	X52	Y52	Z52	

115	1.14	1403.361572265625	872.783630371094	-394.844696044922	1182.3017578125	936.5419921875002	-317.3575134277344	1189.359985351563	946.7299804687502	-200.8224792480469	1425.35546875	912.0840454101565	-135.8875579833985	1293.551025390625	811.8696899414065	-474.4624633789064	1286.406616210938	441.6246337890626	-437.0822143554689	1312.540893554688	408.4473266601564	-282.5069580078126	1238.94970703125	407.7918395996095	-435.0258178710939	1273.086303710938	341.8723144531251	-394.0502319335939	969.3834228515627	195.7584228515626	-371.5421142578126	1002.021728515625	178.4722442626953	-292.0879211425782	922.6812133789065	198.6956634521485	-309.0137634277344	1030.57421875	42.81211853027344	-304.7747802734376	1024.41455078125	60.72289657592775	-362.4646911621094	977.2343750000002	75.87088775634767	-393.250701904297	1355.124389648438	846.3688964843752	-43.05216979980469	1427.871948242188	470.6875915527345	-107.8091278076172	1433.797485351563	471.5000610351564	-271.5194396972657	1404.808715820313	398.0813903808595	-107.3153076171875	1483.846557617188	395.6723632812501	-172.4437103271485	1405.279418945313	68.70401763916017	-167.0690155029297	1431.630004882813	81.36450958251955	-254.2735137939454	1367.498901367188	22.16608428955078	-229.061019897461	1556.957641601563	15.88692092895508	-232.4583129882813	1554.658813476563	37.78780746459962	-176.8751983642578	1505.535400390625	19.23377799987793	-128.8746643066407	1252.040771484375	1397.37451171875	-260.7161560058594	1191.690795898438	1175.013061523438	-269.3247375488282	1445.4306640625	1185.932739257813	-269.0161437988282	1373.177856445313	1326.161743164063	-261.5938720703126	1183.78662109375	1220.73583984375	-372.7459411621094	1214.803833007813	1354.008056640625	-350.9678344726563	1262.471923828125	1365.737060546875	-426.7561950683595	1313.2880859375	1373.192626953125	-444.4137573242189	1361.941528320313	1070.889282226563	-543.5395507812501	1327.307861328125	1035.045043945313	-462.8889465332032	1334.789794921875	1032.892578125	-512.5360107421876	1551.324340820313	917.889343261719	-490.1964111328126	1511.396240234375	881.1624145507815	-549.2835083007814	1618.206176757813	874.610046386719	-502.8924865722657	1554.508056640625	831.3838500976565	-560.0662841796876	1186.378784179688	1198.638549804688	-168.1834411621094	1221.97705078125	1333.339233398438	-171.238998413086	1268.488159179688	1342.171020507813	-106.6957473754883	1318.474975585938	1346.322998046875	-86.55757904052736	1230.275756835938	1045.716674804688	-4.101486682891847	1246.090698242188	1016.790649414063	-89.45867156982423	1224.658203125	1017.778564453125	-40.8519401550293	1290.692993164063	803.6270751953127	45.59521865844727	1229.67626953125	814.879577636719	70.28440093994142	1274.63232421875	725.3066406250001	67.23803710937501	1189.490112304688	773.3262329101565	67.78840637207033	
116	1.15	1416.432250976563	875.4170532226565	-394.8704223632814	1195.586303710938	938.966735839844	-314.9935913085938	1203.624633789063	949.601013183594	-198.8790283203126	1439.001342773438	913.6926269531252	-135.2230987548828	1307.649291992188	813.6070556640627	-472.9796752929689	1311.79052734375	443.5066223144532	-437.5943298339845	1340.792114257813	409.9244995117189	-283.1604003906251	1264.847290039063	410.0029296875001	-435.177459716797	1300.02685546875	343.7530822753907	-394.8065490722657	995.7421875000002	199.4942016601563	-369.7938842773438	1029.252685546875	180.9448852539063	-290.6851806640626	949.2795410156252	201.0406646728516	-306.7293090820313	1058.140869140625	45.27920150756837	-307.1042785644532	1051.378662109375	64.62695312500001	-364.3908996582032	1003.86279296875	80.90821075439455	-394.2922668457032	1368.292358398438	847.7014770507815	-42.09933471679688	1432.53369140625	470.6683959960939	-107.187744140625	1439.12744140625	471.4747619628907	-270.8595886230469	1407.847534179688	398.3768310546876	-107.0474624633789	1487.677124023438	394.9463500976564	-171.4507293701172	1405.528686523438	68.8928680419922	-166.8639831542969	1432.019897460938	81.69833374023439	-254.0706176757813	1367.724609375	22.41505813598633	-229.0280151367188	1557.01318359375	16.55166053771973	-232.3575134277344	1554.731323242188	38.16832351684571	-176.6180267333985	1505.671997070313	19.48420906066895	-128.6723937988282	1265.797607421875	1399.846069335938	-260.0790710449219	1205.954223632813	1177.470703125	-267.4292297363282	1458.79443359375	1188.087890625	-269.1542663574219	1386.810546875	1328.853271484375	-261.7297363281251	1196.797607421875	1223.025634765625	-370.8258972167969	1227.940063476563	1356.365600585938	-349.7902221679688	1275.192504882813	1367.937866210938	-425.9567871093751	1325.837036132813	1375.274291992188	-444.0764160156251	1370.635375976563	1071.63916015625	-541.7723999023439	1336.647827148438	1036.798706054688	-460.4855041503907	1343.508666992188	1034.274047851563	-510.109344482422	1558.113647460938	915.6905517578127	-489.910858154297	1516.812133789063	879.551696777344	-548.5300292968751	1623.7470703125	870.2220458984377	-502.7869873046876	1558.469116210938	828.6900024414065	-559.5004882812501	1200.980590820313	1201.679931640625	-166.0487823486328	1236.427001953125	1336.330322265625	-170.0267028808594	1283.578369140625	1345.290405273438	-105.8795928955078	1333.651489257813	1349.661254882813	-86.26891326904298	1250.243286132813	1047.55908203125	-2.488999366760254	1264.548095703125	1018.997985839844	-88.17737579345705	1244.025756835938	1019.524353027344	-39.13178634643555	1315.67626953125	806.2568969726565	45.58911895751954	1254.89990234375	816.5368652343752	71.50494384765626	1301.603149414063	727.7746582031251	67.34024047851564	1215.474487304688	774.2572021484377	69.6504592895508	
117	1.16	1429.2451171875	878.1741333007815	-395.2289428710939	1208.722290039063	941.6955566406252	-312.3853454589844	1217.794677734375	952.5004882812502	-196.7297668457032	1452.501098632813	914.8764648437502	-134.4386138916016	1321.210205078125	815.8323364257815	-471.5430603027345	1337.096313476563	445.9709777832032	-437.9927062988282	1368.53759765625	412.3781127929689	-283.5976867675782	1290.713256835938	412.7331848144532	-435.1955871582032	1327.194702148438	346.1914672851563	-395.3558349609376	1023.337707519531	201.9574890136719	-368.0900878906251	1057.5947265625	182.6286926269532	-289.2052612304688	976.9011230468752	201.7617797851563	-304.6480712890626	1087.980346679688	47.47158432006837	-308.7365417480469	1080.760864257813	68.13699340820314	-365.5775451660157	1032.943359375	84.85320281982423	-394.9055480957032	1380.816772460938	848.4284667968752	-41.29742813110352	1436.766357421875	470.6355285644532	-106.7555236816407	1443.78076171875	471.3919067382814	-270.3838806152344	1410.48046875	398.6213378906251	-106.963607788086	1491.004760742188	394.2358703613282	-170.7102966308594	1405.746459960938	69.0300750732422	-166.7630462646485	1432.373779296875	81.94241333007814	-253.9148864746094	1367.885620117188	22.65556907653809	-229.0649566650391	1557.051025390625	17.11569404602051	-232.2769317626954	1554.730590820313	38.46751022338868	-176.4275207519532	1505.757446289063	19.63129425048828	-128.5809326171875	1279.360107421875	1402.297241210938	-259.6098937988282	1219.999145507813	1179.890502929688	-265.5237121582032	1471.943969726563	1190.213012695313	-269.4013671875001	1400.232543945313	1331.489135742188	-262.0029602050782	1209.595825195313	1225.159790039063	-368.8512268066407	1240.859375	1358.585327148438	-348.7290954589844	1287.576904296875	1369.958129882813	-425.315155029297	1338.0615234375	1377.196533203125	-443.9169006347657	1379.084228515625	1072.260864257813	-540.0827636718751	1345.948364257813	1038.41943359375	-458.1543884277345	1352.0751953125	1035.584594726563	-507.7067871093751	1564.50537109375	913.191101074219	-489.8889160156251	1521.746215820313	877.765563964844	-548.0386962890626	1628.652465820313	865.228210449219	-502.8430175781251	1561.7080078125	825.6904296875002	-559.1027221679689	1215.350708007813	1204.7392578125	-163.9193267822266	1250.634643554688	1339.356689453125	-168.9554595947266	1298.398193359375	1348.459106445313	-105.2095794677735	1348.542358398438	1353.061279296875	-86.15608978271486	1270.474487304688	1049.42529296875	-0.9523884654045107	1283.00390625	1021.206115722656	-86.9444046020508	1263.532104492188	1021.266479492188	-37.47448348999024	1341.177368164063	809.0831298828127	45.33025360107423	1280.748168945313	818.2861938476565	72.55031585693361	1329.374755859375	730.5383911132814	67.30075836181642	1242.206909179688	775.2135009765627	71.43762207031251	
118	1.17	1441.845947265625	881.042175292969	-395.8305053710939	1221.756713867188	944.6512451171877	-309.6372985839844	1231.877319335938	955.3963623046877	-194.4439697265626	1465.897705078125	915.6709594726565	-133.5511627197266	1334.260498046875	818.460144042969	-470.1670227050782	1362.284057617188	448.9375000000001	-438.2680969238282	1395.726440429688	415.7225646972657	-283.8329772949219	1316.518676757813	415.8582458496095	-435.0945434570314	1354.509399414063	349.1252441406251	-395.7037658691407	1052.013305664063	203.0747528076172	-366.4760742187501	1086.906372070313	183.470947265625	-287.6976013183594	1005.436279296875	200.8746032714844	-302.8093872070313	1119.855834960938	49.27583312988283	-309.6754150390626	1112.26611328125	71.07470703125001	-366.0480346679688	1064.177124023438	87.54915618896486	-395.0888061523439	1392.799072265625	848.667907714844	-40.63516998291016	1440.683837890625	470.640594482422	-106.4812393188477	1447.867553710938	471.2907104492189	-270.0776977539063	1412.8662109375	398.8733215332032	-107.0097808837891	1493.933349609375	393.5770568847657	-170.1978149414063	1405.965454101563	69.1316604614258	-166.7554168701172	1432.70068359375	82.12350463867189	-253.7950897216797	1367.992553710938	22.91769409179688	-229.1538543701172	1557.07666015625	17.53363609313965	-232.2090911865235	1554.697265625	38.64750671386719	-176.2888336181641	1505.802368164063	19.66753959655762	-128.567138671875	1292.741577148438	1404.693725585938	-259.2813110351563	1233.835693359375	1182.239501953125	-263.6119689941407	1484.920654296875	1192.309326171875	-269.7401733398438	1413.466674804688	1334.037353515625	-262.3775329589844	1222.212524414063	1227.11669921875	-366.8200073242188	1253.58203125	1360.641723632813	-347.7608032226563	1299.623413085938	1371.788452148438	-424.8062133789064	1349.980224609375	1378.94677734375	-443.8980407714845	1387.325073242188	1072.767700195313	-538.4744262695314	1355.2216796875	1039.916137695313	-455.902069091797	1360.5185546875	1036.823486328125	-505.340789794922	1570.509155273438	910.4180908203127	-490.1257934570314	1526.224365234375	875.8296508789065	-547.7985229492189	1632.933349609375	859.7183227539065	-503.0534667968751	1564.275146484375	822.4392089843752	-558.8555908203126	1229.519287109375	1207.762939453125	-161.8025207519532	1264.611328125	1342.367797851563	-168.0118865966797	1312.945922851563	1351.631469726563	-104.6693954467774	1363.152221679688	1356.472412109375	-86.18984985351564	1290.945068359375	1051.3095703125	0.4940656125545503	1301.446166992188	1023.409790039063	-85.7599563598633	1283.164672851563	1022.989990234375	-35.89200973510743	1367.1318359375	812.1329345703127	44.80113601684571	1307.156616210938	820.146423339844	73.38751220703126	1357.868041992188	733.6293945312501	67.0977249145508	1269.63232421875	776.2222900390627	73.10554504394533	
